<svg width="20" height="21" viewBox="0 0 20 21" fill="none" xmlns="http://www.w3.org/2000/svg">
<path d="M1 1.5H3L3.4 3.5M5 11.5H15L19 3.5H3.4M5 11.5L3.4 3.5M5 11.5L2.707 13.793C2.077 14.423 2.523 15.5 3.414 15.5H15M15 15.5C14.4696 15.5 13.9609 15.7107 13.5858 16.0858C13.2107 16.4609 13 16.9696 13 17.5C13 18.0304 13.2107 18.5391 13.5858 18.9142C13.9609 19.2893 14.4696 19.5 15 19.5C15.5304 19.5 16.0391 19.2893 16.4142 18.9142C16.7893 18.5391 17 18.0304 17 17.5C17 16.9696 16.7893 16.4609 16.4142 16.0858C16.0391 15.7107 15.5304 15.5 15 15.5ZM7 17.5C7 18.0304 6.78929 18.5391 6.41421 18.9142C6.03914 19.2893 5.53043 19.5 5 19.5C4.46957 19.5 3.96086 19.2893 3.58579 18.9142C3.21071 18.5391 3 18.0304 3 17.5C3 16.9696 3.21071 16.4609 3.58579 16.0858C3.96086 15.7107 4.46957 15.5 5 15.5C5.53043 15.5 6.03914 15.7107 6.41421 16.0858C6.78929 16.4609 7 16.9696 7 17.5V17.5Z" stroke="black" stroke-width="2" stroke-linecap="round" stroke-linejoin="round"/>
</svg>
