<svg width="158" height="71" viewBox="0 0 158 71" fill="none" xmlns="http://www.w3.org/2000/svg">
<rect x="1" y="1" width="156" height="69" stroke="black" stroke-width="2"/>
<path d="M17.76 50V22H22.96V45.6H37.6V50H17.76ZM38.0303 32.44L40.3503 23.56L41.0303 26.56C40.097 26.56 39.3103 26.2667 38.6703 25.68C38.057 25.0933 37.7503 24.3067 37.7503 23.32C37.7503 22.3333 38.057 21.5467 38.6703 20.96C39.3103 20.3467 40.0836 20.04 40.9903 20.04C41.9236 20.04 42.697 20.3467 43.3103 20.96C43.9236 21.5733 44.2303 22.36 44.2303 23.32C44.2303 23.6133 44.2036 23.92 44.1503 24.24C44.1236 24.5333 44.0436 24.88 43.9103 25.28C43.8036 25.6533 43.617 26.1467 43.3503 26.76L41.2703 32.44H38.0303ZM58.1559 50.28C56.3426 50.28 54.7426 49.9467 53.3559 49.28C51.9693 48.5867 50.8893 47.5467 50.1159 46.16C49.3426 44.7467 48.9559 42.9733 48.9559 40.84V28.64H53.9559V40.16C53.9559 42.08 54.3826 43.52 55.2359 44.48C56.1159 45.4133 57.3559 45.88 58.9559 45.88C60.1293 45.88 61.1426 45.64 61.9959 45.16C62.8759 44.68 63.5559 43.96 64.0359 43C64.5426 42.04 64.7959 40.8533 64.7959 39.44V28.64H69.7959V50H65.0359V44.24L65.8759 46C65.1559 47.3867 64.1026 48.4533 62.7159 49.2C61.3293 49.92 59.8093 50.28 58.1559 50.28ZM105.903 28.4C107.609 28.4 109.116 28.7333 110.422 29.4C111.756 30.0667 112.796 31.0933 113.542 32.48C114.289 33.84 114.662 35.6 114.662 37.76V50H109.662V38.4C109.662 36.5067 109.249 35.0933 108.423 34.16C107.596 33.2267 106.409 32.76 104.862 32.76C103.769 32.76 102.796 33 101.942 33.48C101.116 33.96 100.463 34.6667 99.9825 35.6C99.5292 36.5333 99.3025 37.72 99.3025 39.16V50H94.3025V38.4C94.3025 36.5067 93.8892 35.0933 93.0625 34.16C92.2358 33.2267 91.0492 32.76 89.5025 32.76C88.4092 32.76 87.4358 33 86.5825 33.48C85.7558 33.96 85.1025 34.6667 84.6225 35.6C84.1692 36.5333 83.9425 37.72 83.9425 39.16V50H78.9425V28.64H83.7025V34.32L82.8625 32.64C83.5825 31.2533 84.6225 30.2 85.9825 29.48C87.3692 28.76 88.9425 28.4 90.7025 28.4C92.7025 28.4 94.4358 28.8933 95.9025 29.88C97.3958 30.8667 98.3825 32.36 98.8625 34.36L96.9025 33.68C97.5958 32.08 98.7425 30.8 100.343 29.84C101.943 28.88 103.796 28.4 105.903 28.4ZM130.691 50.28C128.504 50.28 126.558 49.8133 124.851 48.88C123.144 47.92 121.798 46.6133 120.811 44.96C119.824 43.3067 119.331 41.4267 119.331 39.32C119.331 37.1867 119.824 35.3067 120.811 33.68C121.798 32.0267 123.144 30.7333 124.851 29.8C126.558 28.8667 128.504 28.4 130.691 28.4C132.904 28.4 134.864 28.8667 136.571 29.8C138.304 30.7333 139.651 32.0133 140.611 33.64C141.598 35.2667 142.091 37.16 142.091 39.32C142.091 41.4267 141.598 43.3067 140.611 44.96C139.651 46.6133 138.304 47.92 136.571 48.88C134.864 49.8133 132.904 50.28 130.691 50.28ZM130.691 46C131.918 46 133.011 45.7333 133.971 45.2C134.931 44.6667 135.678 43.8933 136.211 42.88C136.771 41.8667 137.051 40.68 137.051 39.32C137.051 37.9333 136.771 36.7467 136.211 35.76C135.678 34.7467 134.931 33.9733 133.971 33.44C133.011 32.9067 131.931 32.64 130.731 32.64C129.504 32.64 128.411 32.9067 127.451 33.44C126.518 33.9733 125.771 34.7467 125.211 35.76C124.651 36.7467 124.371 37.9333 124.371 39.32C124.371 40.68 124.651 41.8667 125.211 42.88C125.771 43.8933 126.518 44.6667 127.451 45.2C128.411 45.7333 129.491 46 130.691 46Z" fill="black"/>
</svg>
